<?xml version="1.0" encoding="UTF-8"?>
<svg width="32px" height="32px" viewBox="0 0 32 32" version="1.1" xmlns="http://www.w3.org/2000/svg" xmlns:xlink="http://www.w3.org/1999/xlink">
    <!-- Generator: Sketch 50.2 (55047) - http://www.bohemiancoding.com/sketch -->
    <title>Group 2 Copy</title>
    <desc>Created with Sketch.</desc>
    <defs>
        <path d="M3.0348565,9.77777778 L11.5555556,9.77777778 C13.0283149,9.77777778 14.2222222,8.58387044 14.2222222,7.11111111 L14.2222222,0.888888889 C14.2222222,0.397969111 14.6201913,8.8817842e-16 15.1111111,8.8817842e-16 C15.6020309,8.8817842e-16 16,0.397969111 16,0.888888889 L16,7.11111111 C16,9.56571 14.0101544,11.5555556 11.5555556,11.5555556 L3.0348565,11.5555556 L5.96187269,14.4825718 C6.3090054,14.8297045 6.3090054,15.3925178 5.96187269,15.7396505 C5.61473999,16.0867832 5.05192668,16.0867832 4.70479397,15.7396505 L0.260349528,11.295206 C-0.0867831759,10.9480733 -0.0867831759,10.38526 0.260349528,10.0381273 L4.70479397,5.59368286 C5.05192668,5.24655016 5.61473999,5.24655016 5.96187269,5.59368286 C6.3090054,5.94081556 6.3090054,6.50362888 5.96187269,6.85076158 L3.0348565,9.77777778 Z" id="path-1"></path>
    </defs>
    <g id="M02-Prototype" stroke="none" stroke-width="1" fill="none" fill-rule="evenodd">
        <g id="M02-/-16-(State-2)" transform="translate(-48.000000, -732.000000)">
            <g id="Group" transform="translate(32.000000, 372.000000)">
                <g id="Group-2-Copy" transform="translate(16.000000, 360.000000)">
                    <circle id="Oval" fill="#CE349F" cx="16" cy="16" r="16"></circle>
                    <g id="corner-down-left" transform="translate(8.000000, 8.000000)">
                        <mask id="mask-2" fill="white">
                            <use xlink:href="#path-1"></use>
                        </mask>
                        <use id="Combined-Shape" fill="#FFFFFF" fill-rule="nonzero" xlink:href="#path-1"></use>
                    </g>
                </g>
            </g>
        </g>
    </g>
</svg>