<?xml version="1.0" encoding="UTF-8"?>
<svg width="32px" height="32px" viewBox="0 0 32 32" version="1.1" xmlns="http://www.w3.org/2000/svg" xmlns:xlink="http://www.w3.org/1999/xlink">
    <!-- Generator: Sketch 50.2 (55047) - http://www.bohemiancoding.com/sketch -->
    <title>Group Copy 5</title>
    <desc>Created with Sketch.</desc>
    <defs>
        <path d="M11.5555556,3.0348565 L11.5555556,11.5555556 C11.5555556,14.0101544 9.56571,16 7.11111111,16 L0.888888889,16 C0.397969111,16 0,15.6020309 0,15.1111111 C0,14.6201913 0.397969111,14.2222222 0.888888889,14.2222222 L7.11111111,14.2222222 C8.58387044,14.2222222 9.77777778,13.0283149 9.77777778,11.5555556 L9.77777778,3.0348565 L6.85076158,5.96187269 C6.50362888,6.3090054 5.94081556,6.3090054 5.59368286,5.96187269 C5.24655016,5.61473999 5.24655016,5.05192668 5.59368286,4.70479397 L10.0381273,0.260349528 C10.38526,-0.0867831759 10.9480733,-0.0867831759 11.295206,0.260349528 L15.7396505,4.70479397 C16.0867832,5.05192668 16.0867832,5.61473999 15.7396505,5.96187269 C15.3925178,6.3090054 14.8297045,6.3090054 14.4825718,5.96187269 L11.5555556,3.0348565 Z" id="path-1"></path>
    </defs>
    <g id="M02-Prototype" stroke="none" stroke-width="1" fill="none" fill-rule="evenodd">
        <g id="M02-/-16-(State-1)" transform="translate(-48.000000, -732.000000)">
            <g id="Group" transform="translate(32.000000, 372.000000)">
                <g id="Group-Copy-5" transform="translate(16.000000, 360.000000)">
                    <circle id="Oval" fill="#CE349F" cx="16" cy="16" r="16"></circle>
                    <g id="corner-right-up" transform="translate(8.000000, 8.000000)">
                        <mask id="mask-2" fill="white">
                            <use xlink:href="#path-1"></use>
                        </mask>
                        <use id="Combined-Shape" fill="#FFFFFF" fill-rule="nonzero" transform="translate(8.000000, 8.000000) rotate(-270.000000) translate(-8.000000, -8.000000) " xlink:href="#path-1"></use>
                    </g>
                </g>
            </g>
        </g>
    </g>
</svg>