<?xml version="1.0" encoding="utf-8"?>
<!-- Generator: Adobe Illustrator 18.1.1, SVG Export Plug-In . SVG Version: 6.00 Build 0)  -->
<svg version="1.1" id="Layer_1" xmlns="http://www.w3.org/2000/svg" xmlns:xlink="http://www.w3.org/1999/xlink" x="0px" y="0px"
	 viewBox="0 0 50 50" enable-background="new 0 0 50 50" xml:space="preserve">
<defs>
	<filter id="Adobe_OpacityMaskFilter" filterUnits="userSpaceOnUse" x="-21.9" y="1.6" width="90.9" height="47.2">
		
			<feColorMatrix  type="matrix" values="-1 0 0 0 1  0 -1 0 0 1  0 0 -1 0 1  0 0 0 1 0" color-interpolation-filters="sRGB" result="source"/>
	</filter>
</defs>
<mask maskUnits="userSpaceOnUse" x="-21.9" y="1.6" width="90.9" height="47.2" id="SVGID_1_">
	<g filter="url(#Adobe_OpacityMaskFilter)">
		<g>
			<title>Slice 1</title>
			<description>Created with Sketch (http://www.bohemiancoding.com/sketch)</description>
			<g>
				<path fill="#010101" d="M35.9,29.3l12.4,12.4c0,3.7-3,6.6-6.6,6.6L29.2,36c-2.7,1.6-5.8,2.5-9.1,2.5C10,38.4,1.9,30.3,1.9,20.2
					S10,2,20.1,2s18.2,8.2,18.2,18.2C38.3,23.5,37.4,26.6,35.9,29.3z M20.1,31.8c6.4,0,11.6-5.2,11.6-11.6S26.5,8.6,20.1,8.6
					S8.5,13.8,8.5,20.2S13.7,31.8,20.1,31.8z"/>
			</g>
		</g>
	</g>
</mask>
<g mask="url(#SVGID_1_)">
	<g>
		<rect x="-21.9" y="1.6" fill="#E04040" width="90.9" height="7.9"/>
		<rect x="-21.9" y="9.4" fill="#F4F4F4" width="90.9" height="7.9"/>
		<rect x="-21.9" y="17.3" fill="#E04040" width="90.9" height="7.9"/>
		<rect x="-21.9" y="25.2" fill="#F4F4F4" width="90.9" height="7.9"/>
		<rect x="-21.9" y="33" fill="#E04040" width="90.9" height="7.9"/>
	</g>
	<rect x="-21.9" y="40.9" fill="#F4F4F4" width="90.9" height="7.9"/>
</g>
</svg>
