<?xml version="1.0" encoding="UTF-8"?>
<svg width="32px" height="32px" viewBox="0 0 32 32" version="1.1" xmlns="http://www.w3.org/2000/svg" xmlns:xlink="http://www.w3.org/1999/xlink">
    <!-- Generator: Sketch 50.2 (55047) - http://www.bohemiancoding.com/sketch -->
    <title>Atoms / Buttons / Actions / Active</title>
    <desc>Created with Sketch.</desc>
    <defs>
        <rect id="path-1" x="0" y="0" width="32" height="32" rx="16"></rect>
        <path d="M20.7,12.7 L14.7,18.7 C14.5,18.9 14.3,19 14,19 C13.7,19 13.5,18.9 13.3,18.7 C12.9,18.3 12.9,17.7 13.3,17.3 L17.6,13 L4,13 C3.4,13 3,12.6 3,12 C3,11.4 3.4,11 4,11 L17.6,11 L13.3,6.7 C12.9,6.3 12.9,5.7 13.3,5.3 C13.7,4.9 14.3,4.9 14.7,5.3 L20.7,11.3 C20.8,11.4 20.9,11.5 20.9,11.6 C21,11.8 21,12.1 20.9,12.4 C20.9,12.5 20.8,12.6 20.7,12.7 Z" id="path-3"></path>
    </defs>
    <g id="Atoms-/-Buttons-/-Actions-/-Active" stroke="none" stroke-width="1" fill="none" fill-rule="evenodd">
        <mask id="mask-2" fill="white">
            <use xlink:href="#path-1"></use>
        </mask>
        <use id="Mask" fill="#CE349F" xlink:href="#path-1"></use>
        <g id="Particles-/-Icons-/-Arrow-Right" mask="url(#mask-2)">
            <g transform="translate(4.000000, 4.000000)">
                <mask id="mask-4" fill="white">
                    <use xlink:href="#path-3"></use>
                </mask>
                <use id="Mask" stroke="none" fill="#000000" fill-rule="nonzero" xlink:href="#path-3"></use>
                <g id="Particles-/-Colors-/-White" stroke="none" fill="none" mask="url(#mask-4)" fill-rule="evenodd">
                    <rect id="Rectangle" fill="#FFFFFF" x="0" y="0" width="24" height="24"></rect>
                </g>
            </g>
        </g>
    </g>
</svg>