<?xml version="1.0" encoding="UTF-8"?>
<svg width="24px" height="24px" viewBox="0 0 24 24" version="1.1" xmlns="http://www.w3.org/2000/svg" xmlns:xlink="http://www.w3.org/1999/xlink">
    <!-- Generator: Sketch 50.2 (55047) - http://www.bohemiancoding.com/sketch -->
    <title>Particles / Icons / Summary / Burst Pen</title>
    <desc>Created with Sketch.</desc>
    <defs>
        <rect id="path-1" x="0" y="0" width="24" height="24" rx="12"></rect>
    </defs>
    <g id="Particles-/-Icons-/-Summary-/-Burst-Pen" stroke="none" stroke-width="1" fill="none" fill-rule="evenodd">
        <mask id="mask-2" fill="white">
            <use xlink:href="#path-1"></use>
        </mask>
        <use id="Mask" fill="#1797F5" xlink:href="#path-1"></use>
        <g id="Particles-/-Colors-/-Royal-Blue" mask="url(#mask-2)" fill="#4086FF">
            <g transform="translate(-4.000000, -4.000000)" id="Rectangle">
                <rect x="0" y="0" width="32" height="32"></rect>
            </g>
        </g>
        <g id="pen" mask="url(#mask-2)" fill="#FFFFFF" fill-rule="nonzero">
            <g transform="translate(4.000000, 4.000000)" id="Shape">
                <path d="M6.26496,7.11616 L0.13824,13.24288 C0.0497184726,13.3311372 -3.46838918e-05,13.4509984 -3.46838918e-05,13.576 C-3.46838918e-05,13.7010016 0.0497184726,13.8208628 0.13824,13.90912 L1.82784,15.59936 C1.9162066,15.6879203 2.03617373,15.7376892 2.16128,15.7376892 C2.28638627,15.7376892 2.4063534,15.6879203 2.49472,15.59936 L8.62144,9.472 C8.70979268,9.38355379 8.7593039,9.26357544 8.75904,9.13856 L9.09248,7.11552 C9.09248,6.85537179 8.88158821,6.64448 8.62144,6.64448 L6.59776,6.97728 C6.47279643,6.97759574 6.35307957,7.0275545 6.26496,7.11616 Z M8.14976,7.5872 L7.81696,8.944 L2.16128,14.59968 L1.13728,13.57568 L6.79232,7.92 L8.14976,7.5872 Z"></path>
                <path d="M15.13408,9.088 L12.51008,8.09792 C12.2700214,7.9788367 11.9831736,8.006366 11.7701454,8.16893287 C11.5571173,8.33149973 11.4548546,8.60090996 11.506355,8.86388654 C11.5578554,9.12686312 11.7541872,9.33779765 12.0128,9.408 L14.6368,10.39744 C14.8765531,10.5107124 15.159616,10.47966 15.3691105,10.3171046 C15.578605,10.1545493 15.6789897,9.88806893 15.6288151,9.62769476 C15.5786406,9.36732058 15.3864191,9.15722595 15.13152,9.08416 L15.13408,9.088 Z"></path>
                <path d="M14.42368,3.73568 L11.86688,4.89344 C11.6176191,4.98274821 11.4395477,5.20436197 11.4060073,5.46700623 C11.3724669,5.7296505 11.4891304,5.98890269 11.7079481,6.13798581 C11.9267658,6.28706894 12.2107278,6.30076768 12.44288,6.17344 L15.00288,5.01568 C15.2487287,4.92340766 15.4227882,4.70197586 15.4543875,4.44128977 C15.4859868,4.18060367 15.3698728,3.92399827 15.15319,3.77565983 C14.9365071,3.6273214 14.6552755,3.61190887 14.42368,3.73568 Z"></path>
                <path d="M10.13824,0.4544 L9.14816,3.0784 C9.03540996,3.31802523 9.06667458,3.60065253 9.22907294,3.80984047 C9.3914713,4.01902841 9.65752541,4.11938216 9.91762195,4.06955633 C10.1777185,4.01973049 10.3878488,3.82815568 10.46144,3.57376 L11.45152,0.94656 C11.548753,0.595107841 11.3615223,0.227579678 11.0200584,0.0996138934 C10.6785944,-0.028351891 10.2959336,0.125605822 10.13824,0.4544 Z"></path>
                <path d="M1.50592,5.45088 L4.12992,6.44096 C4.36889547,6.55011108 4.64876564,6.51711321 4.85580218,6.35537544 C5.06283872,6.19363767 5.16258986,5.93007386 5.11452062,5.67178607 C5.06645137,5.41349828 4.87856069,5.20346671 4.6272,5.12704 L2.0032,4.1376 C1.76344686,4.02432764 1.48038399,4.05537999 1.27088949,4.21793537 C1.06139499,4.38049075 0.961010346,4.64697107 1.01118489,4.90734524 C1.06135943,5.16771942 1.25358087,5.37781405 1.50848,5.45088 L1.50592,5.45088 Z"></path>
                <path d="M11.8528,13.376 L10.69568,10.816 C10.6063718,10.5667391 10.384758,10.3886677 10.1221138,10.3551273 C9.8594695,10.3215869 9.60021731,10.4382504 9.45113419,10.6570681 C9.30205106,10.8758858 9.28835232,11.1598478 9.41568,11.392 L10.5728,13.952 C10.749436,14.2740544 11.1439908,14.4061815 11.478952,14.2554489 C11.8139132,14.1047164 11.9766933,13.7217886 11.8528,13.376 Z"></path>
                <path d="M5.9456,3.7248 C6.12038114,4.0518433 6.51888371,4.18724061 6.85672356,4.03436808 C7.1945634,3.88149555 7.35590069,3.4927707 7.2256,3.1456 L6.0672,0.5856 C5.97492766,0.339751333 5.75349586,0.165691754 5.49280977,0.134092497 C5.23212367,0.102493241 4.97551827,0.218607186 4.82717983,0.435290042 C4.6788414,0.651972897 4.66342887,0.933204538 4.7872,1.1648 L5.9456,3.7248 Z"></path>
            </g>
        </g>
    </g>
</svg>