<?xml version="1.0" encoding="UTF-8"?>
<svg width="20px" height="20px" viewBox="0 0 20 20" version="1.1" xmlns="http://www.w3.org/2000/svg" xmlns:xlink="http://www.w3.org/1999/xlink">
    <!-- Generator: Sketch 50.2 (55047) - http://www.bohemiancoding.com/sketch -->
    <title>Particles / Icons / Chat</title>
    <desc>Created with Sketch.</desc>
    <defs>
        <path d="M20,8.9 C19.7005873,4.1 15.9080265,0.2 11.0176192,0 L10.518598,0 C10.518598,0 10.518598,0 10.518598,0 C9.02153453,0 7.62427528,0.3 6.32682027,1 C3.03328063,2.6 1.037196,5.9 1.037196,9.5 C1.037196,10.8 1.33660869,12.2 1.83562985,13.4 L0.0391536836,18.7 C-0.0606505479,19.1 0.0391536836,19.5 0.238762147,19.7 C0.538174842,19.9 0.737783305,20 1.037196,20 C1.13700023,20 1.23680446,20 1.33660869,19.9 L6.62623297,18.1 C7.82388375,18.6 9.12133876,18.9 10.518598,18.9 C14.1115503,18.9 17.40509,16.9 19.0019577,13.7 C19.7005873,12.4 20,10.9 20,9.4 L20,8.9 Z M18.0039154,9.5 C18.0039154,9.5 18.0039154,9.5 18.0039154,9.5 C18.0039154,10.7 17.7045027,11.8 17.2054815,12.9 C15.9080265,15.5 13.4129207,17 10.518598,17 C9.42075145,17 8.22310067,16.7 7.22505836,16.2 C7.02544989,16.1 6.7260372,16.1 6.4266245,16.1 L2.6340637,17.4 L3.93151872,13.6 C4.03132295,13.3 4.03132295,13.1 3.83171448,12.8 C3.33269333,11.8 3.03328063,10.6 3.03328063,9.5 C3.03328063,6.6 4.63014834,4.1 7.22505836,2.8 C8.22310067,2.3 9.42075145,2 10.518598,2 C10.518598,2 10.518598,2 10.518598,2 L10.9178149,2 C14.7103757,2.2 17.7045027,5.2 18.0039154,9 L18.0039154,9.5 Z" id="path-1"></path>
    </defs>
    <g id="M04-Prototype" stroke="none" stroke-width="1" fill="none" fill-rule="evenodd">
        <g id="M04-/-11-(State-1)" transform="translate(-18.000000, -42.000000)">
            <g id="Organism-/-Header-/-Mobile">
                <g id="Group" transform="translate(16.000000, 37.000000)">
                    <g id="Particles-/-Icons-/-Chat" transform="translate(12.000000, 15.000000) scale(-1, 1) translate(-12.000000, -15.000000) translate(2.000000, 5.000000)">
                        <g id="🎨-Color">
                            <mask id="mask-2" fill="white">
                                <use xlink:href="#path-1"></use>
                            </mask>
                            <use id="Mask" fill="#000000" fill-rule="nonzero" xlink:href="#path-1"></use>
                            <g id="Particles-/-Colors-/-Black" mask="url(#mask-2)" fill="#000000">
                                <g transform="translate(-6.000000, -6.000000)" id="Rectangle">
                                    <rect x="0" y="0" width="32" height="32"></rect>
                                </g>
                            </g>
                        </g>
                    </g>
                </g>
            </g>
        </g>
    </g>
</svg>